<?xml version="1.0" encoding="UTF-8" ?>
<!DOCTYPE svg PUBLIC "-//W3C//DTD SVG 1.1//EN" "http://www.w3.org/Graphics/SVG/1.1/DTD/svg11.dtd">
<svg width="469pt" height="469pt" viewBox="0 0 469 469" version="1.1" xmlns="http://www.w3.org/2000/svg">
<g id="#68af10ff">
<path fill="#68af10" opacity="1.00" d=" M 128.10 105.14 C 131.26 102.06 134.85 99.46 138.80 97.49 C 136.93 104.87 134.16 112.00 130.96 118.90 C 129.03 122.74 126.96 126.75 123.49 129.44 C 121.18 131.31 118.03 130.72 115.28 130.83 C 115.17 127.61 114.90 124.26 116.14 121.20 C 118.64 114.91 123.28 109.77 128.10 105.14 Z" />
<path fill="#68af10" opacity="1.00" d=" M 321.87 97.69 C 330.29 102.36 337.31 109.47 342.38 117.61 C 344.98 121.53 345.18 126.34 344.72 130.88 C 342.01 130.71 338.84 131.36 336.66 129.33 C 332.49 125.88 329.94 120.95 327.87 116.05 C 325.39 110.10 322.81 104.11 321.87 97.69 Z" />
<path fill="#68af10" opacity="1.00" d=" M 144.97 106.00 C 151.62 102.35 158.86 99.48 166.50 98.98 C 164.78 102.28 162.46 105.21 159.75 107.75 C 155.29 111.95 151.22 116.70 145.94 119.92 C 142.61 121.94 138.22 122.96 134.57 121.27 C 133.00 119.76 133.48 117.29 134.40 115.58 C 136.73 111.30 140.83 108.36 144.97 106.00 Z" />
<path fill="#68af10" opacity="1.00" d=" M 293.52 98.97 C 300.65 99.46 307.51 101.87 313.80 105.18 C 318.48 107.68 322.90 111.04 325.70 115.63 C 326.66 117.15 326.66 119.05 326.19 120.74 C 322.71 122.98 318.12 122.22 314.73 120.21 C 309.39 117.08 305.23 112.41 300.80 108.18 C 297.95 105.47 295.43 102.41 293.52 98.97 Z" />
<path fill="#68af10" opacity="1.00" d=" M 106.15 125.14 C 107.92 122.79 110.28 121.03 112.74 119.47 C 112.38 126.56 110.83 133.51 109.21 140.40 C 108.11 144.78 106.78 149.30 103.83 152.83 C 102.10 154.90 99.33 156.49 96.58 155.62 C 93.73 153.20 94.07 149.03 94.82 145.74 C 96.73 138.02 101.32 131.32 106.15 125.14 Z" />
<path fill="#68af10" opacity="1.00" d=" M 347.75 119.40 C 353.38 123.42 357.36 129.23 360.87 135.09 C 363.70 140.11 366.49 145.75 365.66 151.69 C 365.30 153.55 364.23 156.23 361.90 155.87 C 359.35 155.88 357.23 154.10 355.78 152.17 C 353.71 149.25 352.48 145.84 351.49 142.44 C 349.49 134.91 347.72 127.23 347.75 119.40 Z" />
<path fill="#68af10" opacity="1.00" d=" M 132.96 124.98 C 141.34 122.16 150.31 122.08 159.06 122.03 C 158.94 122.65 158.70 123.91 158.57 124.54 C 152.29 128.33 146.04 132.21 139.47 135.48 C 135.12 137.69 130.07 138.71 125.25 137.76 C 122.69 137.30 121.27 133.99 122.77 131.84 C 125.02 128.23 129.13 126.40 132.96 124.98 Z" />
<path fill="#68af10" opacity="1.00" d=" M 300.30 122.41 C 308.99 121.52 317.90 122.13 326.29 124.66 C 330.41 126.09 334.88 127.94 337.29 131.80 C 338.70 133.75 337.82 136.76 335.52 137.55 C 329.49 139.25 323.18 137.15 317.94 134.11 C 311.87 130.53 305.14 127.71 300.30 122.41 Z" />
<path fill="#68af10" opacity="1.00" d=" M 112.37 148.44 C 120.40 144.08 129.46 141.83 138.54 141.21 C 136.29 144.36 133.60 147.17 130.57 149.58 C 124.99 154.06 119.68 159.19 112.92 161.85 C 110.28 162.92 107.15 162.80 104.68 161.36 C 102.37 159.80 103.04 156.38 104.55 154.50 C 106.67 151.93 109.50 150.07 112.37 148.44 Z" />
<path fill="#68af10" opacity="1.00" d=" M 321.39 141.25 C 331.44 141.91 341.61 144.43 350.17 149.87 C 353.05 151.87 356.47 154.23 356.90 158.02 C 357.23 160.15 355.36 161.98 353.43 162.49 C 350.80 163.14 348.07 162.30 345.68 161.23 C 339.77 158.51 335.04 153.94 330.02 149.93 C 326.81 147.39 323.87 144.51 321.39 141.25 Z" />
<path fill="#68af10" opacity="1.00" d=" M 87.16 148.06 C 87.76 148.07 88.94 148.11 89.54 148.13 C 90.05 156.78 91.46 165.42 90.96 174.11 C 90.68 177.95 89.91 182.18 86.89 184.86 C 85.03 186.83 81.40 186.25 80.19 183.85 C 78.62 180.82 78.93 177.26 78.91 173.95 C 79.07 164.70 83.21 156.21 87.16 148.06 Z" />
<path fill="#68af10" opacity="1.00" d=" M 371.18 147.61 C 374.00 148.96 374.97 152.10 376.22 154.72 C 379.81 162.88 382.45 171.91 380.93 180.88 C 380.54 183.28 378.93 186.38 376.06 186.02 C 373.31 185.96 371.60 183.37 370.69 181.07 C 368.35 174.76 368.99 167.89 369.52 161.33 C 369.95 156.74 370.00 152.09 371.18 147.61 Z" />
<path fill="#68af10" opacity="1.00" d=" M 97.04 175.07 C 103.59 169.66 110.92 164.72 119.30 162.75 C 116.83 169.02 112.61 174.33 108.71 179.74 C 105.56 183.86 102.11 188.13 97.22 190.22 C 94.51 191.46 91.64 190.06 88.98 189.40 C 88.87 190.50 88.76 191.60 88.64 192.70 C 87.95 192.74 86.57 192.82 85.88 192.86 C 86.71 190.11 87.46 187.34 88.53 184.67 C 90.14 180.56 93.91 177.95 97.04 175.07 Z" />
<path fill="#68af10" opacity="1.00" d=" M 340.72 162.76 C 350.56 164.92 358.80 171.17 366.18 177.73 C 368.64 179.93 371.85 182.29 371.79 185.96 C 371.26 188.05 369.73 190.04 367.64 190.73 C 365.27 191.27 362.85 190.35 360.83 189.16 C 356.73 186.68 353.75 182.83 350.95 179.04 C 347.20 173.84 343.21 168.72 340.72 162.76 Z" />
<path fill="#68af10" opacity="1.00" d=" M 72.24 181.23 C 72.93 181.19 74.32 181.10 75.02 181.06 C 77.54 188.92 80.33 196.78 81.42 205.01 C 81.88 208.71 81.94 212.69 80.22 216.11 C 79.17 218.29 76.07 219.94 74.00 218.06 C 70.85 215.30 69.65 210.95 69.25 206.92 C 68.67 201.91 71.87 197.41 71.47 192.41 C 71.24 188.66 71.56 184.92 72.24 181.23 Z" />
<path fill="#68af10" opacity="1.00" d=" M 84.04 213.91 C 88.18 203.04 96.10 193.57 106.12 187.65 C 105.17 194.99 102.37 201.90 99.74 208.76 C 97.69 213.56 95.21 219.00 90.09 221.16 C 87.97 222.16 85.70 221.05 83.63 220.49 C 83.48 232.39 83.19 244.41 85.52 256.15 C 86.74 264.63 89.08 272.88 91.46 281.09 C 91.26 275.65 91.55 270.13 93.15 264.90 C 94.86 259.36 97.44 254.15 100.05 249.00 C 100.68 249.04 101.93 249.12 102.56 249.16 C 102.70 257.13 103.99 265.06 103.74 273.03 C 103.39 277.42 102.78 282.43 99.28 285.53 C 97.52 287.09 95.06 285.97 93.01 285.81 C 96.11 292.14 98.76 298.68 102.03 304.93 C 101.37 304.84 100.04 304.67 99.38 304.58 C 96.54 298.75 93.36 293.07 90.93 287.04 C 86.42 275.72 83.05 263.91 81.55 251.80 C 79.51 252.66 77.49 254.27 75.17 253.97 C 72.32 253.03 70.55 250.33 69.15 247.84 C 64.35 238.51 63.17 227.68 64.37 217.35 C 71.03 224.30 75.18 233.11 80.05 241.31 C 80.22 235.87 80.07 230.43 80.40 225.00 C 80.86 217.34 82.16 209.77 83.36 202.20 C 84.02 202.15 85.34 202.05 86.00 202.00 C 85.44 205.98 84.81 209.96 84.04 213.91 Z" />
<path fill="#68af10" opacity="1.00" d=" M 353.94 187.57 C 363.77 193.32 371.27 202.56 375.96 212.86 C 375.28 209.29 374.66 205.71 373.98 202.14 C 374.70 202.16 376.12 202.20 376.83 202.21 C 377.58 207.75 378.31 213.28 379.13 218.81 C 380.22 226.28 379.84 233.85 380.07 241.38 C 383.88 235.06 387.30 228.50 391.42 222.37 C 392.54 220.39 394.67 219.49 396.58 218.44 C 396.72 226.55 395.88 234.76 393.34 242.49 C 392.13 245.92 390.57 249.34 388.03 251.99 C 386.80 253.27 385.07 254.43 383.21 253.98 C 381.57 253.34 380.12 252.32 378.66 251.39 C 376.91 265.95 372.51 280.13 366.50 293.48 C 364.62 297.51 362.82 301.85 359.08 304.55 C 361.22 298.10 364.25 291.98 367.07 285.80 C 364.77 286.06 361.90 287.15 360.19 284.94 C 356.60 280.92 356.65 275.08 356.50 270.01 C 356.81 262.45 356.83 254.81 358.39 247.38 C 362.11 251.85 364.29 257.29 366.24 262.71 C 368.62 268.83 369.33 275.49 368.40 281.99 C 369.53 277.88 370.78 273.81 371.89 269.71 C 375.25 257.09 376.50 244.03 376.90 231.02 C 376.94 226.44 376.48 221.85 376.99 217.28 C 375.94 218.77 375.17 220.73 373.35 221.42 C 371.21 222.36 368.95 221.00 367.34 219.65 C 363.40 216.16 361.37 211.15 359.52 206.35 C 357.26 200.23 354.74 194.11 353.94 187.57 Z" />
<path fill="#68af10" opacity="1.00" d=" M 84.34 197.21 C 84.98 197.18 86.26 197.12 86.90 197.09 C 86.85 198.32 86.80 199.56 86.74 200.80 C 86.07 200.83 84.73 200.88 84.06 200.91 C 84.14 199.67 84.23 198.44 84.34 197.21 Z" />
<path fill="#68af10" opacity="1.00" d=" M 90.92 230.95 C 94.50 225.56 98.49 220.26 103.87 216.54 C 103.29 224.08 101.59 231.49 99.65 238.78 C 98.38 243.26 96.73 247.94 93.20 251.16 C 91.65 252.63 89.43 253.30 87.33 252.93 C 85.61 251.89 84.75 249.89 84.81 247.93 C 84.68 241.73 87.69 236.04 90.92 230.95 Z" />
<path fill="#68af10" opacity="1.00" d=" M 356.24 216.54 C 359.79 219.01 362.91 222.05 365.43 225.56 C 369.76 231.36 374.07 237.68 375.03 245.02 C 375.19 247.61 375.65 250.81 373.48 252.75 C 371.16 253.39 368.51 252.90 366.81 251.13 C 363.21 247.61 361.47 242.68 360.22 237.91 C 358.49 230.87 356.96 223.76 356.24 216.54 Z" />
<path fill="#68af10" opacity="1.00" d=" M 64.78 255.58 C 70.20 258.88 74.49 263.60 78.92 268.06 C 82.44 271.72 86.10 275.52 87.91 280.37 C 89.08 283.18 88.64 286.65 86.61 288.96 C 85.05 289.26 83.46 288.87 82.21 287.88 C 78.19 284.95 74.08 281.75 71.82 277.19 C 68.36 270.42 65.65 263.17 64.78 255.58 Z" />
<path fill="#68af10" opacity="1.00" d=" M 380.73 268.73 C 385.43 264.05 389.76 258.80 395.65 255.53 C 394.30 263.11 391.83 270.50 388.22 277.30 C 386.06 281.24 383.37 285.06 379.62 287.63 C 377.83 288.89 375.54 289.31 373.41 288.86 C 371.42 286.92 371.12 283.86 371.95 281.31 C 373.46 276.30 377.17 272.41 380.73 268.73 Z" />
<path fill="#68af10" opacity="1.00" d=" M 350.51 279.36 C 351.08 279.29 352.20 279.15 352.77 279.08 C 355.01 287.19 355.08 295.60 355.22 303.94 L 354.32 304.02 C 350.33 304.35 346.36 304.69 342.38 305.03 C 344.10 296.18 347.44 287.79 350.51 279.36 Z" />
</g>
<g id="#fdf1daff">
<path fill="#fdf1da" opacity="1.00" d=" M 157.05 181.01 C 168.84 175.51 181.80 172.63 194.82 172.87 C 195.17 198.92 194.93 224.97 194.97 251.02 C 195.19 260.61 196.29 270.17 196.09 279.77 C 190.49 279.85 184.90 280.37 179.40 281.37 C 171.80 282.74 164.89 286.78 157.11 287.30 C 157.03 251.87 157.03 216.44 157.05 181.01 Z" />
</g>
<g id="#fbf1e0ff">
<path fill="#fbf1e0" opacity="1.00" d=" M 194.82 172.87 C 206.58 173.01 218.31 175.78 228.86 180.98 C 229.01 186.67 230.18 192.28 230.02 197.98 C 229.88 219.99 230.08 242.01 229.92 264.02 C 229.43 272.15 230.45 280.34 229.24 288.42 C 218.57 284.32 207.59 280.54 196.09 279.77 C 196.29 270.17 195.19 260.61 194.97 251.02 C 194.93 224.97 195.17 198.92 194.82 172.87 Z" />
<path fill="#fbf1e0" opacity="1.00" d=" M 230.98 180.98 C 241.12 176.69 251.82 173.11 262.94 172.95 C 262.97 197.97 262.91 222.98 262.95 248.00 C 262.91 254.33 262.67 260.68 263.24 267.00 C 263.59 271.30 263.35 275.62 262.75 279.89 C 255.30 280.91 247.84 282.22 240.74 284.78 C 237.56 286.04 234.38 287.33 231.12 288.36 C 230.84 252.57 231.11 216.77 230.98 180.98 Z" />
</g>
<g id="#fcf0d9ff">
<path fill="#fcf0d9" opacity="1.00" d=" M 262.94 172.95 C 268.61 173.04 274.32 172.86 279.93 173.88 C 287.86 175.27 295.58 177.76 302.92 181.06 C 302.72 216.49 302.92 251.91 302.80 287.34 C 296.81 286.61 291.38 283.83 285.59 282.31 C 278.13 280.46 270.44 279.36 262.75 279.89 C 263.35 275.62 263.59 271.30 263.24 267.00 C 262.67 260.68 262.91 254.33 262.95 248.00 C 262.91 222.98 262.97 197.97 262.94 172.95 Z" />
</g>
<g id="#68ae10ff">
<path fill="#68ae10" opacity="1.00" d=" M 385.06 180.96 C 385.69 181.05 386.96 181.23 387.60 181.33 C 389.19 187.78 391.08 194.30 390.84 201.02 C 390.69 205.42 390.32 209.89 389.02 214.13 C 388.17 216.79 385.59 219.75 382.50 218.70 C 378.80 215.65 378.37 210.41 378.68 205.97 C 379.53 197.36 382.57 189.18 385.06 180.96 M 387.27 204.27 L 387.27 204.73 L 387.73 204.73 L 387.73 204.27 L 387.27 204.27 Z" />
<path fill="#68ae10" opacity="1.00" d=" M 371.37 188.22 C 374.37 191.43 375.20 195.79 376.07 199.93 C 375.40 199.88 374.07 199.79 373.40 199.74 C 372.52 195.94 371.67 192.12 371.37 188.22 Z" />
<path fill="#68ae10" opacity="1.00" d=" M 107.59 279.53 C 107.92 279.34 108.57 278.96 108.89 278.78 C 111.03 282.33 112.24 286.32 113.70 290.18 C 110.23 290.60 106.68 291.67 104.89 294.97 C 105.47 289.79 105.48 284.37 107.59 279.53 Z" />
<path fill="#68ae10" opacity="1.00" d=" M 367.65 303.38 C 372.93 299.23 378.66 295.40 385.25 293.71 C 383.88 297.41 382.03 300.90 380.22 304.41 L 379.22 304.31 C 375.37 303.92 371.52 303.47 367.65 303.38 Z" />
<path fill="#68ae10" opacity="1.00" d=" M 108.75 318.26 C 109.53 318.24 111.07 318.19 111.85 318.17 C 111.80 318.98 111.69 320.61 111.64 321.42 C 110.82 320.20 109.18 319.77 108.75 318.26 Z" />
<path fill="#68ae10" opacity="1.00" d=" M 111.95 321.62 C 115.76 323.31 118.42 326.62 120.08 330.36 C 116.34 328.58 113.41 325.50 111.95 321.62 Z" />
</g>
<g id="#4992d7fe">
<path fill="#4992d7" opacity="1.00" d=" M 142.97 199.58 C 144.87 199.66 147.37 198.43 148.71 200.33 C 149.40 205.19 148.90 210.11 148.97 215.00 C 148.98 238.37 148.93 261.73 149.00 285.10 C 147.03 285.43 145.05 285.76 143.07 286.10 C 142.92 257.26 143.13 228.42 142.97 199.58 Z" />
</g>
<g id="#4a94d9ff">
<path fill="#4a94d9" opacity="1.00" d=" M 311.68 199.75 C 313.33 199.25 315.06 199.10 316.76 198.78 C 317.17 206.18 316.96 213.59 316.99 221.00 C 317.00 244.21 316.98 267.43 316.99 290.64 C 315.10 290.64 313.21 290.65 311.33 290.70 C 310.84 263.47 311.35 236.23 311.07 208.99 C 311.07 205.90 310.82 202.75 311.68 199.75 Z" />
</g>
<g id="#226aadfe">
<path fill="#226aad" opacity="1.00" d=" M 143.07 286.10 C 145.05 285.76 147.03 285.43 149.00 285.10 C 149.00 287.05 149.02 289.00 149.02 290.96 C 165.70 291.04 182.38 291.04 199.06 290.93 C 201.82 291.06 205.02 290.84 207.27 292.75 C 208.59 294.53 208.89 296.81 209.53 298.89 C 223.18 299.06 236.83 299.09 250.48 298.87 C 251.53 296.15 251.87 292.03 255.40 291.45 C 261.20 290.42 267.14 291.17 273.00 291.01 C 285.77 290.86 298.56 291.33 311.33 290.70 C 313.21 290.65 315.10 290.64 316.99 290.64 C 316.97 292.74 316.95 294.83 316.93 296.93 C 296.97 296.87 277.02 296.93 257.06 296.99 C 257.02 299.32 256.98 301.66 256.94 303.99 C 238.99 304.01 221.04 304.02 203.09 303.99 C 203.04 301.65 203.00 299.32 202.95 296.99 C 194.34 296.66 185.59 297.84 177.12 295.82 C 174.44 295.17 171.66 295.32 168.98 295.90 C 160.46 297.75 151.70 296.72 143.06 296.86 C 143.04 293.27 143.04 289.68 143.07 286.10 Z" />
</g>
<g id="#53a50dff">
<path fill="#53a50d" opacity="1.00" d=" M 104.89 294.97 C 106.68 291.67 110.23 290.60 113.70 290.18 C 115.59 297.20 118.80 304.30 117.57 311.73 C 117.15 313.81 116.09 316.38 113.80 316.88 C 111.11 316.81 108.56 315.63 106.31 314.24 C 103.28 312.31 102.04 308.75 100.97 305.52 C 103.65 307.59 105.82 310.19 107.71 312.99 C 105.40 307.30 104.49 301.09 104.89 294.97 Z" />
<path fill="#53a50d" opacity="1.00" d=" M 74.97 293.65 C 81.66 295.82 87.51 299.81 93.42 303.51 C 97.84 306.46 102.54 309.92 104.25 315.19 C 104.74 317.10 105.02 319.99 102.70 320.82 C 97.89 322.07 93.37 319.09 90.02 315.95 C 83.49 309.72 77.95 302.23 74.97 293.65 Z" />
<path fill="#53a50d" opacity="1.00" d=" M 358.05 311.07 C 360.65 307.92 363.69 304.70 367.65 303.38 C 371.52 303.47 375.37 303.92 379.22 304.31 C 376.27 310.27 371.63 315.32 366.11 319.02 C 363.31 320.87 359.69 322.11 356.44 320.62 C 355.37 317.40 355.83 313.70 358.05 311.07 Z" />
<path fill="#53a50d" opacity="1.00" d=" M 95.54 329.02 C 104.73 329.73 113.50 332.96 122.09 336.09 C 124.71 338.49 127.65 340.54 130.61 342.51 C 130.16 344.48 129.94 346.52 129.23 348.43 C 123.67 350.73 117.67 347.89 112.82 345.14 C 106.19 340.85 99.76 335.80 95.54 329.02 Z" />
<path fill="#53a50d" opacity="1.00" d=" M 342.51 334.51 C 349.89 331.80 357.49 329.61 365.30 328.63 C 361.07 334.55 355.59 339.49 349.64 343.63 C 345.54 346.38 341.02 348.87 336.01 349.29 C 333.97 349.43 331.57 349.23 330.18 347.53 C 329.57 345.19 330.18 342.60 331.88 340.86 C 334.75 337.80 338.68 336.05 342.51 334.51 Z" />
<path fill="#53a50d" opacity="1.00" d=" M 268.76 354.74 C 274.37 351.05 279.95 347.16 286.33 344.87 C 283.27 355.00 276.12 363.35 268.58 370.51 C 264.74 371.94 260.59 371.92 256.57 371.46 C 257.10 368.60 257.31 365.50 259.11 363.08 C 261.64 359.61 265.24 357.13 268.76 354.74 Z" />
<path fill="#53a50d" opacity="1.00" d=" M 124.27 363.11 C 126.41 362.28 128.47 361.08 130.85 361.11 C 138.74 360.60 146.66 360.14 154.56 360.65 C 156.68 361.72 158.91 362.76 160.62 364.46 C 161.81 366.01 162.25 367.98 162.75 369.83 C 158.84 373.41 153.18 373.14 148.29 372.45 C 139.76 371.02 131.59 367.68 124.27 363.11 Z" />
<path fill="#53a50d" opacity="1.00" d=" M 306.33 361.06 C 311.14 360.11 316.07 360.40 320.93 360.62 C 325.80 360.92 330.72 360.99 335.47 362.18 C 333.51 365.22 330.01 366.47 326.86 367.89 C 320.27 370.71 313.26 373.16 305.99 372.86 C 302.90 372.76 299.41 372.10 297.42 369.49 C 296.21 364.36 302.24 361.73 306.33 361.06 Z" />
</g>
<g id="#54a50dff">
<path fill="#54a50d" opacity="1.00" d=" M 342.38 305.03 C 346.36 304.69 350.33 304.35 354.32 304.02 C 354.37 308.82 352.86 314.14 348.61 316.88 C 346.57 317.43 344.27 316.40 343.48 314.42 C 342.26 311.45 342.51 308.16 342.38 305.03 Z" />
<path fill="#54a50d" opacity="1.00" d=" M 173.70 344.96 C 178.46 346.62 182.87 349.11 187.08 351.86 C 191.85 354.97 196.93 357.91 200.54 362.42 C 202.51 364.85 203.84 368.28 202.60 371.34 C 201.61 372.09 200.66 372.88 199.73 373.71 C 196.12 371.86 192.45 370.07 189.06 367.82 C 182.10 361.74 176.84 353.64 173.70 344.96 Z" />
</g>
<g id="#54a50eff">
<path fill="#54a50e" opacity="1.00" d=" M 123.49 304.50 C 128.54 310.01 132.14 316.60 135.86 323.03 C 138.67 328.14 141.33 334.32 139.21 340.15 C 137.69 341.24 135.97 342.00 134.31 342.84 C 142.11 348.09 149.48 354.09 158.09 358.02 C 160.16 359.39 162.30 360.68 164.52 361.81 C 173.35 366.20 182.66 369.56 192.21 371.99 C 194.86 372.80 197.56 373.43 200.27 373.99 C 220.08 377.14 240.40 376.99 260.22 373.96 C 262.78 373.48 265.31 372.84 267.80 372.07 C 277.39 369.65 286.61 365.99 295.61 361.93 C 298.53 360.50 301.38 358.94 304.10 357.16 C 311.74 352.97 318.80 347.88 325.76 342.66 C 323.80 341.60 320.82 341.14 320.44 338.52 C 319.21 333.14 321.80 327.93 324.22 323.30 C 327.90 317.02 331.04 310.19 336.61 305.31 C 337.77 316.88 335.71 328.74 330.08 338.95 C 333.76 335.61 337.47 332.27 340.65 328.43 C 341.32 328.39 342.65 328.30 343.32 328.26 C 328.03 345.94 308.48 359.84 286.90 368.78 C 281.45 370.96 275.79 372.56 270.35 374.79 C 279.54 377.08 288.70 379.46 297.69 382.47 C 297.75 383.05 297.86 384.22 297.91 384.80 C 288.40 387.41 278.34 389.18 268.53 387.30 C 265.27 386.53 261.54 385.17 260.10 381.88 C 260.41 380.04 261.07 378.27 261.64 376.50 C 254.12 378.16 246.45 378.84 238.78 379.37 C 241.79 380.36 244.81 381.33 247.84 382.26 C 247.86 383.56 247.88 384.86 247.89 386.18 C 241.76 384.68 236.27 381.08 230.02 380.14 C 223.84 381.24 218.39 384.79 212.27 386.21 C 212.20 384.91 212.15 383.61 212.10 382.32 C 215.16 381.37 218.20 380.38 221.23 379.36 C 213.60 378.80 205.95 378.13 198.46 376.47 C 198.92 378.47 200.21 380.52 199.74 382.60 C 197.83 385.65 194.12 386.86 190.78 387.51 C 182.60 388.81 174.25 387.72 166.25 385.87 C 164.32 385.35 162.11 384.99 160.83 383.28 C 164.46 381.61 168.33 380.54 172.14 379.37 C 176.99 377.99 181.84 376.40 186.90 376.07 C 189.66 375.88 192.43 375.77 195.21 375.65 C 193.15 375.13 191.10 374.61 189.06 374.08 C 180.04 371.71 171.20 368.49 163.05 363.93 C 160.78 362.71 158.49 361.54 156.14 360.49 C 147.37 355.39 138.95 349.58 131.29 342.90 C 128.17 339.92 125.00 336.98 122.03 333.84 C 121.68 333.30 120.98 332.23 120.63 331.69 C 124.87 333.68 128.29 336.93 131.48 340.29 C 123.88 330.12 122.51 316.79 123.49 304.50 Z" />
<path fill="#54a50e" opacity="1.00" d=" M 145.26 327.62 C 148.58 329.56 151.58 331.98 154.25 334.75 C 158.70 339.35 163.63 343.65 166.87 349.26 C 168.47 352.03 169.54 355.35 168.78 358.55 C 168.25 360.67 165.61 360.65 163.98 361.44 C 161.88 359.99 159.72 358.64 157.63 357.19 C 151.22 348.49 147.10 338.24 145.26 327.62 Z" />
<path fill="#54a50e" opacity="1.00" d=" M 300.85 339.86 C 305.22 335.47 309.41 330.77 314.80 327.59 C 313.29 337.33 309.70 346.85 303.94 354.88 C 301.45 357.22 298.76 359.33 296.12 361.51 C 294.47 360.64 291.95 360.53 291.35 358.44 C 290.54 355.75 291.28 352.85 292.52 350.42 C 294.59 346.40 297.72 343.07 300.85 339.86 Z" />
</g>
<g id="#569a19ed">
<path fill="#569a19" opacity="0.93" d=" M 346.97 322.47 C 349.63 316.83 352.99 311.34 357.96 307.46 C 355.86 313.40 352.17 318.82 346.97 322.47 Z" />
</g>
<g id="#4f891bd1">
<path fill="#4f891b" opacity="0.82" d=" M 343.40 325.67 C 344.45 324.54 345.53 323.44 346.66 322.39 C 346.73 323.28 346.88 325.05 346.95 325.94 C 346.06 325.88 344.29 325.74 343.40 325.67 Z" />
</g>
<g id="#4267258e">
<path fill="#426725" opacity="0.56" d=" M 122.03 333.84 C 125.00 336.98 128.17 339.92 131.29 342.90 L 130.61 342.51 C 127.65 340.54 124.71 338.49 122.09 336.09 C 122.07 335.53 122.05 334.40 122.03 333.84 Z" />
</g>
<g id="#3c5a237c">
<path fill="#3c5a23" opacity="0.49" d=" M 296.12 361.51 C 298.76 359.33 301.45 357.22 303.94 354.88 C 303.98 355.45 304.06 356.59 304.10 357.16 C 301.38 358.94 298.53 360.50 295.61 361.93 L 296.12 361.51 Z" />
</g>
<g id="#456b2694">
<path fill="#456b26" opacity="0.58" d=" M 157.63 357.19 C 159.72 358.64 161.88 359.99 163.98 361.44 L 164.52 361.81 C 162.30 360.68 160.16 359.39 158.09 358.02 L 157.63 357.19 Z" />
</g>
<g id="#3b59227c">
<path fill="#3b5922" opacity="0.49" d=" M 156.14 360.49 C 158.49 361.54 160.78 362.71 163.05 363.93 C 163.06 365.92 163.08 367.91 163.10 369.91 L 162.75 369.83 C 162.25 367.98 161.81 366.01 160.62 364.46 C 158.91 362.76 156.68 361.72 154.56 360.65 C 154.96 360.61 155.75 360.53 156.14 360.49 Z" />
</g>
<g id="#41662090">
<path fill="#416620" opacity="0.56" d=" M 189.06 367.82 C 192.45 370.07 196.12 371.86 199.73 373.71 L 200.27 373.99 C 197.56 373.43 194.86 372.80 192.21 371.99 C 191.07 370.67 190.03 369.27 189.06 367.82 Z" />
</g>
<g id="#466f239e">
<path fill="#466f23" opacity="0.62" d=" M 256.57 371.46 C 260.59 371.92 264.74 371.94 268.58 370.51 C 268.39 370.90 267.99 371.68 267.80 372.07 C 265.31 372.84 262.78 373.48 260.22 373.96 C 259.01 373.10 257.79 372.27 256.57 371.46 Z" />
</g>
<g id="#42612783">
<path fill="#426127" opacity="0.51" d=" M 189.06 374.08 C 191.10 374.61 193.15 375.13 195.21 375.65 C 192.43 375.77 189.66 375.88 186.90 376.07 C 187.62 375.40 188.34 374.74 189.06 374.08 Z" />
</g>
</svg>
